<svg width="1120" height="2250" viewBox="0 0 1120 2250" xmlns="http://www.w3.org/2000/svg" role="img">
<title>バイブコーディングとは ― 言葉の由来・私の開発スタイル・開発サイクルとそのポイントを1枚にまとめたインフォグラフィック</title>
<desc>2025年2月にアンドレイ・カルパシー氏がXで提唱した「vibe coding」という言葉の由来と原文引用、見て・言って・動かして・貼り付けるという繰り返し、個人開発／企業活用の位置づけ、作業フォルダを軸にした私の開発スタイル、①自然言語でコード生成→②毎回マニュアル化→③GitHubへ自動push→④アプリ高度化・バグ修正が①に戻る循環サイクル図、そしてその開発サイクルのポイント3点を、ベクターアイコンとともに1枚にまとめた図。</desc>

<defs>
<style>
  text { font-family: 'Hiragino Sans', 'Hiragino Kaku Gothic ProN', 'Yu Gothic', 'Noto Sans JP', sans-serif; }
  .en { font-family: 'Helvetica Neue', Helvetica, Arial, sans-serif; }
</style>
<linearGradient id="hdr" x1="0%" y1="0%" x2="100%" y2="100%">
  <stop offset="0%" stop-color="#3b1d5e"/>
  <stop offset="50%" stop-color="#312e81"/>
  <stop offset="100%" stop-color="#0e4f8f"/>
</linearGradient>
<linearGradient id="ftr" x1="0%" y1="0%" x2="100%" y2="0%">
  <stop offset="0%" stop-color="#0e4f8f"/>
  <stop offset="100%" stop-color="#3b1d5e"/>
</linearGradient>
<marker id="ar" viewBox="0 0 10 10" refX="8.5" refY="5" markerWidth="7" markerHeight="7" orient="auto-start-reverse">
  <path d="M2 1L8.4 5L2 9" fill="none" stroke="#94a3b8" stroke-width="1.8" stroke-linecap="round" stroke-linejoin="round"/>
</marker>
<marker id="arAmber" viewBox="0 0 10 10" refX="8.5" refY="5" markerWidth="7" markerHeight="7" orient="auto-start-reverse">
  <path d="M2 1L8.4 5L2 9" fill="none" stroke="#d97706" stroke-width="1.9" stroke-linecap="round" stroke-linejoin="round"/>
</marker>
<marker id="arSlate" viewBox="0 0 10 10" refX="8.5" refY="5" markerWidth="7" markerHeight="7" orient="auto-start-reverse">
  <path d="M2 1L8.4 5L2 9" fill="none" stroke="#64748b" stroke-width="1.8" stroke-linecap="round" stroke-linejoin="round"/>
</marker>
</defs>

<rect x="0" y="0" width="1120" height="2250" fill="#fffdf9"/>

<!-- ======================= ヘッダー ======================= -->
<rect x="0" y="0" width="1120" height="170" fill="url(#hdr)"/>
<text x="56" y="82" font-size="46" font-weight="700" fill="#ffffff">バイブコーディングとは</text>
<text x="58" y="126" font-size="20" fill="#c7d2fe">言葉の由来 ／ vibe coding × GitHub 私の開発スタイル ／ 開発サイクルのポイント</text>

<!-- ヘッダー右のイラスト：吹き出し＋コード＋きらめき -->
<g transform="translate(960,52)">
  <path d="M0,0 Q-6,0 -6,7 L-6,58 Q-6,65 0,65 L20,65 L28,80 L34,65 L104,65 Q110,65 110,58 L110,7 Q110,0 104,0 Z" fill="#ffffff" opacity="0.95"/>
  <path d="M22,22 L10,32 L22,42" fill="none" stroke="#312e81" stroke-width="4.2" stroke-linecap="round" stroke-linejoin="round"/>
  <path d="M60,16 L44,48" fill="none" stroke="#312e81" stroke-width="4.2" stroke-linecap="round"/>
  <path d="M82,22 L94,32 L82,42" fill="none" stroke="#312e81" stroke-width="4.2" stroke-linecap="round" stroke-linejoin="round"/>
  <path d="M-24,-14 L-19,-2 L-7,3 L-19,8 L-24,20 L-29,8 L-41,3 L-29,-2 Z" fill="#fbbf24"/>
  <path d="M124,44 L127,52 L135,55 L127,58 L124,66 L121,58 L113,55 L121,52 Z" fill="#fbbf24" opacity="0.85"/>
</g>

<!-- ======================= SEC1 見出し ======================= -->
<circle cx="62" cy="212" r="20" fill="#7c3aed"/>
<text x="62" y="221" text-anchor="middle" font-size="22" font-weight="700" fill="#ffffff">1</text>
<text x="94" y="222" font-size="29" font-weight="700" fill="#3b1d5e">「vibe coding」という言葉の由来</text>

<!-- SEC1 カード -->
<rect x="40" y="240" width="1040" height="560" rx="16" fill="#ffffff" stroke="#e2e8f0" stroke-width="1.5"/>
<rect x="40" y="240" width="1040" height="6" rx="3" fill="#7c3aed"/>

<!-- 提唱者アイコン -->
<circle cx="110" cy="300" r="36" fill="#ede9fe"/>
<g transform="translate(110,300)">
  <circle cx="0" cy="-9" r="12.5" fill="#5b21b6"/>
  <path d="M-21,26 Q-21,3 0,3 Q21,3 21,26 Z" fill="#5b21b6"/>
</g>
<text x="170" y="291" font-size="24" font-weight="700" fill="#1e293b">2025年2月、AI研究者アンドレイ・カルパシー氏がXで提唱</text>
<text x="170" y="323" font-size="17" fill="#64748b">元Tesla AI責任者・OpenAI共同創業者／日本では通常そのまま「バイブコーディング」と呼ぶ</text>

<!-- Xロゴ風マーク -->
<rect x="972" y="272" width="56" height="56" rx="14" fill="#0f172a"/>
<g transform="translate(1000,300)">
  <path d="M-13,-13 L13,13 M13,-13 L-13,13" stroke="#ffffff" stroke-width="4.5" stroke-linecap="round"/>
</g>

<!-- 引用ブロック -->
<rect x="66" y="352" width="988" height="162" rx="6" fill="#f1f5f9"/>
<rect x="66" y="352" width="5" height="162" fill="#2563eb"/>
<text x="100" y="384" class="en" font-size="17.5" font-style="italic" fill="#334155">There's a new kind of coding I call <tspan font-weight="700" font-style="normal" fill="#1d4ed8">'vibe coding'</tspan>, where you fully</text>
<text x="100" y="410" class="en" font-size="17.5" font-style="italic" fill="#334155">give in to the vibes, embrace exponentials, and forget that the code</text>
<text x="100" y="436" class="en" font-size="17.5" font-style="italic" fill="#334155">even exists. [...] It's not too bad for throwaway weekend projects.</text>
<text x="100" y="472" font-size="15" fill="#64748b">— Andrej Karpathy（2025/2/2 Xへの投稿）</text>

<!-- 2つのチップ -->
<rect x="66" y="534" width="470" height="48" rx="24" fill="#fef3c7" stroke="#f59e0b" stroke-width="1.4"/>
<text x="301" y="565" text-anchor="middle" font-size="18" font-weight="700" fill="#92400e">「vibe」＝雰囲気・ノリ →「ノリで開発する」</text>
<rect x="584" y="534" width="470" height="48" rx="24" fill="#fee2e2" stroke="#ef4444" stroke-width="1.4"/>
<text x="819" y="565" text-anchor="middle" font-size="18" font-weight="700" fill="#991b1b">本人は「使い捨ての週末プロジェクト向け」と明言</text>

<!-- 4ステップの繰り返し -->
<text x="66" y="618" font-size="18" font-weight="700" fill="#1e293b">コードを一行ずつ書かず、この4つを素早く繰り返してアイデアを形にする</text>

<!-- ステップ枠 -->
<rect x="66" y="630" width="220" height="88" rx="12" fill="#eff6ff" stroke="#bfdbfe" stroke-width="1.4"/>
<g transform="translate(176,662)">
  <path d="M-22,0 Q-11,-13 0,-13 Q11,-13 22,0 Q11,13 0,13 Q-11,13 -22,0 Z" fill="none" stroke="#1e40af" stroke-width="3"/>
  <circle cx="0" cy="0" r="6" fill="#1e40af"/>
</g>
<text x="176" y="707" text-anchor="middle" font-size="19" font-weight="700" fill="#1e40af">見て</text>

<rect x="322" y="630" width="220" height="88" rx="12" fill="#eff6ff" stroke="#bfdbfe" stroke-width="1.4"/>
<g transform="translate(432,660)">
  <path d="M-22,-14 Q-25,-14 -25,-11 L-25,7 Q-25,10 -22,10 L-8,10 L-2,19 L2,10 L22,10 Q25,10 25,7 L25,-11 Q25,-14 22,-14 Z" fill="#1e40af"/>
  <circle cx="-10" cy="-2" r="2.8" fill="#eff6ff"/>
  <circle cx="0" cy="-2" r="2.8" fill="#eff6ff"/>
  <circle cx="10" cy="-2" r="2.8" fill="#eff6ff"/>
</g>
<text x="432" y="707" text-anchor="middle" font-size="19" font-weight="700" fill="#1e40af">言って</text>

<rect x="578" y="630" width="220" height="88" rx="12" fill="#eff6ff" stroke="#bfdbfe" stroke-width="1.4"/>
<g transform="translate(688,662)">
  <rect x="-24" y="-16" width="48" height="32" rx="7" fill="#1e40af"/>
  <path d="M-6,-8 L10,0 L-6,8 Z" fill="#eff6ff"/>
</g>
<text x="688" y="707" text-anchor="middle" font-size="19" font-weight="700" fill="#1e40af">動かして</text>

<rect x="834" y="630" width="220" height="88" rx="12" fill="#eff6ff" stroke="#bfdbfe" stroke-width="1.4"/>
<g transform="translate(944,662)">
  <rect x="-17" y="-18" width="34" height="36" rx="4" fill="#1e40af"/>
  <rect x="-8" y="-23" width="16" height="9" rx="2.5" fill="#1e40af" stroke="#eff6ff" stroke-width="2"/>
  <line x1="-9" y1="-4" x2="9" y2="-4" stroke="#eff6ff" stroke-width="2.4" stroke-linecap="round"/>
  <line x1="-9" y1="4" x2="9" y2="4" stroke="#eff6ff" stroke-width="2.4" stroke-linecap="round"/>
  <line x1="-9" y1="12" x2="2" y2="12" stroke="#eff6ff" stroke-width="2.4" stroke-linecap="round"/>
</g>
<text x="944" y="707" text-anchor="middle" font-size="19" font-weight="700" fill="#1e40af">貼り付ける</text>

<!-- ステップ間の矢印 -->
<path d="M296,666 L310,674 L296,682" fill="none" stroke="#60a5fa" stroke-width="3.2" stroke-linecap="round" stroke-linejoin="round"/>
<path d="M552,666 L566,674 L552,682" fill="none" stroke="#60a5fa" stroke-width="3.2" stroke-linecap="round" stroke-linejoin="round"/>
<path d="M808,666 L822,674 L808,682" fill="none" stroke="#60a5fa" stroke-width="3.2" stroke-linecap="round" stroke-linejoin="round"/>

<!-- 繰り返しの戻り矢印 -->
<path d="M944,724 C944,748 920,754 560,754 C200,754 176,748 176,726" fill="none" stroke="#94a3b8" stroke-width="2" stroke-dasharray="2 7" stroke-linecap="round" marker-end="url(#ar)"/>
<text x="560" y="776" text-anchor="middle" font-size="14" fill="#64748b">素早く繰り返す</text>

<!-- SEC1 下部：2つの位置づけ -->
<rect x="40" y="816" width="510" height="110" rx="14" fill="#ecfdf5" stroke="#10b981" stroke-width="1.5"/>
<rect x="40" y="816" width="6" height="110" rx="3" fill="#10b981"/>
<g transform="translate(88,864)">
  <circle cx="0" cy="0" r="23" fill="#10b981"/>
  <circle cx="0" cy="-6" r="7" fill="#ffffff"/>
  <path d="M-12,15 Q-12,1 0,1 Q12,1 12,15 Z" fill="#ffffff"/>
</g>
<text x="126" y="852" font-size="20" font-weight="700" fill="#065f46">個人開発と好相性</text>
<text x="126" y="880" font-size="16" fill="#047857">業務知識を持つ人が自ら</text>
<text x="126" y="904" font-size="16" fill="#047857">ツールを試作しやすくなった</text>

<rect x="570" y="816" width="510" height="110" rx="14" fill="#eff6ff" stroke="#3b82f6" stroke-width="1.5"/>
<rect x="570" y="816" width="6" height="110" rx="3" fill="#3b82f6"/>
<g transform="translate(618,864)">
  <circle cx="0" cy="0" r="23" fill="#3b82f6"/>
  <rect x="-13" y="-4" width="11" height="17" fill="#ffffff"/>
  <rect x="1" y="-13" width="12" height="26" fill="#ffffff"/>
  <rect x="4" y="-9" width="6" height="5" fill="#3b82f6"/>
  <rect x="4" y="0" width="6" height="5" fill="#3b82f6"/>
</g>
<text x="656" y="852" font-size="20" font-weight="700" fill="#1e3a8a">企業でも活用が広がる</text>
<text x="656" y="880" font-size="16" fill="#1d4ed8">試作品・社内ツール・アイデア検証に活用</text>
<text x="656" y="904" font-size="16" fill="#1d4ed8">利用者向けには人によるテストと改善が必要</text>

<!-- ======================= SEC2 見出し ======================= -->
<circle cx="62" cy="970" r="20" fill="#0d9488"/>
<text x="62" y="979" text-anchor="middle" font-size="22" font-weight="700" fill="#ffffff">2</text>
<text x="94" y="980" font-size="29" font-weight="700" fill="#134e4a">vibe coding × GitHub ― 私の開発スタイル</text>

<rect x="40" y="1002" width="1040" height="330" rx="16" fill="#ffffff" stroke="#e2e8f0" stroke-width="1.5"/>
<rect x="40" y="1002" width="1040" height="6" rx="3" fill="#0d9488"/>

<!-- 箇条書き（チェックアイコン付き） -->
<g fill="none" stroke="#0d9488" stroke-width="3.4" stroke-linecap="round" stroke-linejoin="round">
  <path d="M74,1037 L81,1044 L94,1029"/>
  <path d="M74,1077 L81,1084 L94,1069"/>
  <path d="M74,1117 L81,1124 L94,1109"/>
  <path d="M74,1157 L81,1164 L94,1149"/>
  <path d="M74,1197 L81,1204 L94,1189"/>
</g>
<text x="112" y="1043" font-size="18" fill="#1e293b">プログラミングを少しかじった程度で、専門知識はない</text>
<text x="112" y="1083" font-size="18" fill="#1e293b">WXBC「アメダス気象データ分析チャレンジ」でPython・機械学習を学んだ</text>
<text x="112" y="1123" font-size="18" fill="#1e293b">生成AIによるプログラミングも同時期に始め、二つの学びが結びついた</text>
<text x="112" y="1163" font-size="18" fill="#1e293b">作業フォルダにコード・マニュアルを蓄積しながら開発するスタイルが定着</text>
<text x="112" y="1203" font-size="18" fill="#1e293b">GitHubへ自動push・定時実行でスマホから日々確認し、気づきを次の開発に活かす</text>

<rect x="66" y="1226" width="988" height="84" rx="6" fill="#f8fafc"/>
<rect x="66" y="1226" width="5" height="84" fill="#8b5cf6"/>
<text x="100" y="1257" font-size="17" fill="#475569">フォルダに蓄積されたコード・マニュアルをAIが読むから、「続きから」で開発を再開できる</text>
<text x="100" y="1287" font-size="17" fill="#475569">このプレゼンもバイブコーディングで自動作成。学習目的ならAIに解説させながら開発する方が向く</text>

<!-- ======================= SEC3 見出し ======================= -->
<circle cx="62" cy="1380" r="20" fill="#d97706"/>
<text x="62" y="1389" text-anchor="middle" font-size="22" font-weight="700" fill="#ffffff">3</text>
<text x="94" y="1390" font-size="29" font-weight="700" fill="#7c2d12">作業フォルダを軸にした開発サイクル</text>

<rect x="40" y="1412" width="1040" height="400" rx="16" fill="#ffffff" stroke="#e2e8f0" stroke-width="1.5"/>
<rect x="40" y="1412" width="1040" height="6" rx="3" fill="#d97706"/>

<!-- ④→① の戻りループ（上を回る） -->
<path d="M938,1516 L938,1472 Q938,1466 932,1466 L188,1466 Q182,1466 182,1472 L182,1516" fill="none" stroke="#d97706" stroke-width="2.2" stroke-dasharray="2 8" stroke-linecap="round" marker-end="url(#arAmber)"/>
<rect x="368" y="1440" width="384" height="28" fill="#ffffff"/>
<text x="560" y="1461" text-anchor="middle" font-size="16" font-weight="700" fill="#b45309">④の気づきが①へ戻り、開発が止まらず続いていく</text>

<!-- ① 自然言語でコード生成 -->
<rect x="66" y="1516" width="232" height="150" rx="14" fill="#ecfdf5" stroke="#6ee7b7" stroke-width="1.5"/>
<circle cx="94" cy="1544" r="17" fill="#065f46"/>
<text x="94" y="1551" text-anchor="middle" font-size="17" font-weight="700" fill="#ffffff">1</text>
<g transform="translate(182,1580)">
  <rect x="-32" y="-22" width="64" height="44" rx="7" fill="#065f46"/>
  <path d="M-14,-8 L-22,0 L-14,8" fill="none" stroke="#ecfdf5" stroke-width="3" stroke-linecap="round" stroke-linejoin="round"/>
  <path d="M4,-11 L-2,11" fill="none" stroke="#ecfdf5" stroke-width="3" stroke-linecap="round"/>
  <path d="M14,-8 L22,0 L14,8" fill="none" stroke="#ecfdf5" stroke-width="3" stroke-linecap="round" stroke-linejoin="round"/>
</g>
<text x="182" y="1630" text-anchor="middle" font-size="18" font-weight="700" fill="#065f46">自然言語でコード生成</text>
<text x="182" y="1653" text-anchor="middle" font-size="13.5" fill="#059669">試作品を高速に作成</text>

<!-- ② 毎回マニュアル化 -->
<rect x="318" y="1516" width="232" height="150" rx="14" fill="#fffbeb" stroke="#fcd34d" stroke-width="1.5"/>
<circle cx="346" cy="1544" r="17" fill="#92400e"/>
<text x="346" y="1551" text-anchor="middle" font-size="17" font-weight="700" fill="#ffffff">2</text>
<g transform="translate(434,1580)">
  <rect x="-19" y="-24" width="36" height="46" rx="4" fill="#92400e"/>
  <line x1="-11" y1="-12" x2="9" y2="-12" stroke="#fffbeb" stroke-width="2.6" stroke-linecap="round"/>
  <line x1="-11" y1="-3" x2="9" y2="-3" stroke="#fffbeb" stroke-width="2.6" stroke-linecap="round"/>
  <line x1="-11" y1="6" x2="2" y2="6" stroke="#fffbeb" stroke-width="2.6" stroke-linecap="round"/>
  <path d="M6,20 L22,4" stroke="#92400e" stroke-width="6" stroke-linecap="round"/>
  <path d="M22,4 L28,-2 L23,-7 L17,-1 Z" fill="#92400e"/>
</g>
<text x="434" y="1630" text-anchor="middle" font-size="18" font-weight="700" fill="#92400e">毎回マニュアル化</text>
<text x="434" y="1653" text-anchor="middle" font-size="13.5" fill="#b45309">経緯と手順をフォルダに残す</text>

<!-- ③ GitHubへ自動push -->
<rect x="570" y="1516" width="232" height="150" rx="14" fill="#eff6ff" stroke="#93c5fd" stroke-width="1.5"/>
<circle cx="598" cy="1544" r="17" fill="#1e40af"/>
<text x="598" y="1551" text-anchor="middle" font-size="17" font-weight="700" fill="#ffffff">3</text>
<g transform="translate(686,1580)">
  <path d="M-30,10 Q-36,-2 -22,-6 Q-19,-19 -3,-17 Q9,-25 18,-14 Q30,-14 28,-2 Q35,6 24,10 Z" fill="#1e40af"/>
  <path d="M-4,4 L-4,-9 M-10,-3 L-4,-9 L2,-3" fill="none" stroke="#eff6ff" stroke-width="3" stroke-linecap="round" stroke-linejoin="round"/>
  <rect x="20" y="0" width="17" height="27" rx="3.5" fill="#1e40af" stroke="#eff6ff" stroke-width="2"/>
  <line x1="25" y1="22" x2="32" y2="22" stroke="#eff6ff" stroke-width="2"/>
</g>
<text x="686" y="1630" text-anchor="middle" font-size="18" font-weight="700" fill="#1e40af">GitHubへ自動push</text>
<text x="686" y="1653" text-anchor="middle" font-size="13.5" fill="#2563eb">定時実行の結果をスマホで確認</text>

<!-- ④ アプリ高度化・バグ修正 -->
<rect x="822" y="1516" width="232" height="150" rx="14" fill="#f5f3ff" stroke="#c4b5fd" stroke-width="1.5"/>
<circle cx="850" cy="1544" r="17" fill="#5b21b6"/>
<text x="850" y="1551" text-anchor="middle" font-size="17" font-weight="700" fill="#ffffff">4</text>
<g transform="translate(938,1580)">
  <path d="M-20,-8 Q-6,-25 14,-12" fill="none" stroke="#5b21b6" stroke-width="4" stroke-linecap="round"/>
  <path d="M16,-20 L18,-8 L6,-8 Z" fill="#5b21b6"/>
  <path d="M20,8 Q6,25 -14,12" fill="none" stroke="#5b21b6" stroke-width="4" stroke-linecap="round"/>
  <path d="M-16,20 L-18,8 L-6,8 Z" fill="#5b21b6"/>
</g>
<text x="938" y="1630" text-anchor="middle" font-size="18" font-weight="700" fill="#5b21b6">アプリ高度化・バグ修正</text>
<text x="938" y="1653" text-anchor="middle" font-size="13.5" fill="#7c3aed">フォルダを読んで続きから</text>

<!-- 工程間の矢印 -->
<path d="M302,1583 L314,1591 L302,1599" fill="none" stroke="#cbd5e1" stroke-width="3.4" stroke-linecap="round" stroke-linejoin="round"/>
<path d="M554,1583 L566,1591 L554,1599" fill="none" stroke="#cbd5e1" stroke-width="3.4" stroke-linecap="round" stroke-linejoin="round"/>
<path d="M806,1583 L818,1591 L806,1599" fill="none" stroke="#cbd5e1" stroke-width="3.4" stroke-linecap="round" stroke-linejoin="round"/>

<!-- 各工程 ⇄ 作業フォルダ の双方向矢印 -->
<line x1="182" y1="1672" x2="182" y2="1695" stroke="#94a3b8" stroke-width="2" stroke-dasharray="1 5" stroke-linecap="round" marker-start="url(#arSlate)" marker-end="url(#arSlate)"/>
<line x1="434" y1="1672" x2="434" y2="1695" stroke="#94a3b8" stroke-width="2" stroke-dasharray="1 5" stroke-linecap="round" marker-start="url(#arSlate)" marker-end="url(#arSlate)"/>
<line x1="686" y1="1672" x2="686" y2="1695" stroke="#94a3b8" stroke-width="2" stroke-dasharray="1 5" stroke-linecap="round" marker-start="url(#arSlate)" marker-end="url(#arSlate)"/>
<line x1="938" y1="1672" x2="938" y2="1695" stroke="#94a3b8" stroke-width="2" stroke-dasharray="1 5" stroke-linecap="round" marker-start="url(#arSlate)" marker-end="url(#arSlate)"/>

<!-- 作業フォルダ帯 -->
<rect x="66" y="1702" width="988" height="90" rx="14" fill="#fdf6e3" stroke="#d97706" stroke-width="1.8"/>
<g transform="translate(136,1747) scale(1.15)">
  <rect x="-30" y="-4" width="60" height="32" rx="4" fill="#78350f"/>
  <path d="M-30,-4 L-30,-14 Q-30,-16 -28,-16 L-6,-16 Q-3,-16 -1,-13 L3,-6 L-30,-6 Z" fill="#78350f"/>
  <rect x="-24" y="2" width="48" height="20" rx="2" fill="#fdf6e3"/>
</g>
<text x="196" y="1743" font-size="21" font-weight="700" fill="#78350f">作業フォルダ ─ コード・マニュアル・ルールを蓄積</text>
<text x="196" y="1771" font-size="16" fill="#92400e">次回の作業でAIが自動で読み込むので、経緯を説明し直さず「続きから」で再開できる</text>

<!-- ======================= SEC4 見出し ======================= -->
<circle cx="62" cy="1893" r="20" fill="#2563eb"/>
<text x="62" y="1902" text-anchor="middle" font-size="22" font-weight="700" fill="#ffffff">4</text>
<text x="94" y="1903" font-size="29" font-weight="700" fill="#1e3a8a">この開発サイクルのポイント</text>

<!-- ポイントA -->
<rect x="40" y="1925" width="336" height="210" rx="16" fill="#ffffff" stroke="#e2e8f0" stroke-width="1.5"/>
<rect x="40" y="1925" width="336" height="6" rx="3" fill="#0d9488"/>
<g transform="translate(86,1970)">
  <circle cx="0" cy="0" r="26" fill="#ccfbf1"/>
  <rect x="-14" y="-3" width="28" height="16" rx="2.5" fill="#0f766e"/>
  <path d="M-14,-3 L-14,-9 Q-14,-11 -12,-11 L-4,-11 Q-2,-11 -1,-9 L1,-5 L-14,-5 Z" fill="#0f766e"/>
  <path d="M4,-14 L6,-9 L11,-7 L6,-5 L4,0 L2,-5 L-3,-7 L2,-9 Z" fill="#f59e0b"/>
</g>
<text x="124" y="1978" font-size="19" font-weight="700" fill="#134e4a">毎回の説明が不要</text>
<text x="62" y="2020" font-size="15" fill="#475569">コード・マニュアル・ルールを</text>
<text x="62" y="2044" font-size="15" fill="#475569">作業フォルダに置いておくと、</text>
<text x="62" y="2068" font-size="15" fill="#475569">AIが次回自動で読み込む。経緯を</text>
<text x="62" y="2092" font-size="15" fill="#475569">説明し直さず「続きから」で</text>
<text x="62" y="2116" font-size="15" fill="#475569">再開できる</text>

<!-- ポイントB -->
<rect x="392" y="1925" width="336" height="210" rx="16" fill="#ffffff" stroke="#e2e8f0" stroke-width="1.5"/>
<rect x="392" y="1925" width="336" height="6" rx="3" fill="#2563eb"/>
<g transform="translate(438,1970)">
  <circle cx="0" cy="0" r="26" fill="#dbeafe"/>
  <rect x="-11" y="-15" width="22" height="30" rx="3.5" fill="#1d4ed8"/>
  <rect x="-8" y="-11" width="16" height="20" fill="#dbeafe"/>
  <rect x="-5" y="0" width="3" height="6" fill="#1d4ed8"/>
  <rect x="-0.5" y="-4" width="3" height="10" fill="#1d4ed8"/>
  <rect x="4" y="-8" width="3" height="14" fill="#1d4ed8"/>
</g>
<text x="476" y="1978" font-size="19" font-weight="700" fill="#1e3a8a">GitHubで見えるもの</text>
<text x="414" y="2020" font-size="15" fill="#475569">コードそのものというより、</text>
<text x="414" y="2044" font-size="15" fill="#475569">自動化処理した成果物を見える化。</text>
<text x="414" y="2068" font-size="15" fill="#475569">Webアプリ・記事・グラフ・</text>
<text x="414" y="2092" font-size="15" fill="#475569">検証結果などをスマホから</text>
<text x="414" y="2116" font-size="15" fill="#475569">いつでも確認できる</text>

<!-- ポイントC -->
<rect x="744" y="1925" width="336" height="210" rx="16" fill="#ffffff" stroke="#e2e8f0" stroke-width="1.5"/>
<rect x="744" y="1925" width="336" height="6" rx="3" fill="#7c3aed"/>
<g transform="translate(790,1970)">
  <circle cx="0" cy="0" r="26" fill="#ede9fe"/>
  <path d="M0,-17 Q9,-7 9,3 L-9,3 Q-9,-7 0,-17 Z" fill="#5b21b6"/>
  <circle cx="0" cy="-6" r="3.4" fill="#ede9fe"/>
  <path d="M-9,-1 L-15,6 L-9,6 Z" fill="#5b21b6"/>
  <path d="M9,-1 L15,6 L9,6 Z" fill="#5b21b6"/>
  <path d="M-4,5 Q0,14 4,5 Z" fill="#f59e0b"/>
</g>
<text x="828" y="1978" font-size="19" font-weight="700" fill="#3b1d5e">バイブコーディングの強み</text>
<text x="766" y="2020" font-size="15" fill="#475569">試作品の高速開発に向く。</text>
<text x="766" y="2044" font-size="15" fill="#475569">コードの知識がなくても、</text>
<text x="766" y="2068" font-size="15" fill="#475569">自然言語の指示だけで形にできる。</text>
<text x="766" y="2092" font-size="15" fill="#475569">「動くもの」を作りながら</text>
<text x="766" y="2116" font-size="15" fill="#475569">学べるのも大きい</text>

<!-- ======================= フッター ======================= -->
<rect x="0" y="2170" width="1120" height="80" fill="url(#ftr)"/>
<text x="560" y="2218" text-anchor="middle" font-size="22" font-weight="700" fill="#ffffff">見て・言って・動かして・貼り付ける ─ 作業フォルダが記憶し、開発サイクルが止まらない</text>

</svg>
